<?xml version="1.0" encoding="UTF-8"?>
<svg id="uuid-7733dfb3-781a-4419-b56e-d23d0cffb009" data-name="Layer_1" xmlns="http://www.w3.org/2000/svg" viewBox="0 0 145 145">
  <path id="uuid-487a9205-40de-4f13-8180-b02060bd2bd4" data-name="cell" d="M94.38,120.4h-43.76c-3.19,0-5.78-2.59-5.78-5.78V30.38c0-3.19,2.59-5.78,5.78-5.78h43.76c3.19,0,5.78,2.59,5.78,5.78v84.25c0,3.19-2.59,5.78-5.78,5.78ZM95.27,105.04V36.12c0-2.75-2.23-4.97-4.97-4.97h-35.59c-2.75,0-4.97,2.23-4.97,4.97v68.91c0,2.75,2.23,4.97,4.97,4.97h35.59c2.75,0,4.97-2.23,4.97-4.97ZM72.5,111.45c-1.98,0-3.59,1.61-3.59,3.59s1.61,3.59,3.59,3.59,3.59-1.61,3.59-3.59-1.61-3.59-3.59-3.59ZM80.5,26.89h-16v2.61h16v-2.61Z" fill="#231f20"/>
</svg>