<?xml version="1.0" encoding="UTF-8"?>
<svg id="Layer_1" xmlns="http://www.w3.org/2000/svg" viewBox="0 0 100 100">
  <defs>
    <style>
      .cls-1 {
        fill: #fff;
      }
    </style>
  </defs>
  <path class="cls-1" d="M50,100C22.43,100,0,77.57,0,50S22.43,0,50,0s50,22.43,50,50-22.43,50-50,50ZM50,3.37C24.29,3.37,3.37,24.29,3.37,50s20.92,46.63,46.63,46.63,46.63-20.92,46.63-46.63S75.71,3.37,50,3.37ZM52.38,50l15.57,15.57-2.38,2.38-15.57-15.57-15.57,15.57-2.38-2.38,15.57-15.57-15.57-15.57,2.38-2.38,15.57,15.57,15.57-15.57,2.38,2.38-15.57,15.57Z"/>
</svg>