<?xml version="1.0" encoding="UTF-8"?>
<svg id="Layer_1" xmlns="http://www.w3.org/2000/svg" viewBox="0 0 140.63 200">
  <defs>
    <style>
      .cls-1 {
        fill: #ed2024;
      }
    </style>
  </defs>
  <path class="cls-1" d="M106.3,9.92C95.41,3.43,82.98,0,70.31,0h0C31.47,0,0,31.49,0,70.33c0,13.05,3.64,25.85,10.5,36.95l55.81,89.95c1.07,1.72,2.95,2.77,4.97,2.77h.05c2.04-.01,3.93-1.09,4.98-2.85l54.39-90.81c19.89-33.37,8.96-76.53-24.41-96.42ZM70.31,105.47c-19.42,0-35.16-15.74-35.16-35.16s15.74-35.16,35.16-35.16c19.41.02,35.13,15.75,35.16,35.16,0,19.42-15.74,35.16-35.16,35.16Z"/>
</svg>