<?xml version="1.0" encoding="UTF-8"?>
<svg id="uuid-48cdacaa-5868-4dc6-b9b2-f716bcd8eb6b" data-name="Layer_1" xmlns="http://www.w3.org/2000/svg" viewBox="0 0 145 145">
  <g id="uuid-a5c86f0e-c02c-4bcb-934c-58f338842a73" data-name="local">
    <path id="uuid-0e94d820-2334-4de5-b2e2-dabb40df413c" data-name="Path_35" d="M72.5,27.84c-17.34,0-31.4,14.06-31.4,31.41,0,5.83,1.62,11.55,4.69,16.51l24.93,40.18c.48.77,1.32,1.24,2.22,1.24h.02c.91,0,1.76-.49,2.22-1.27l24.29-40.55c8.88-14.9,4-34.18-10.9-43.06-4.86-2.9-10.41-4.43-16.07-4.43h0ZM94.98,72.64l-22.08,36.87-22.66-36.52c-7.61-12.3-3.81-28.44,8.48-36.05,12.3-7.61,28.44-3.81,36.05,8.48,5.15,8.32,5.23,18.81.21,27.21h0Z" fill="#231f20"/>
    <path id="uuid-6c576791-e672-4aa5-8427-90cdf5e1cb80" data-name="Path_36" d="M72.5,43.54c-8.67,0-15.7,7.03-15.7,15.7,0,8.67,7.03,15.7,15.7,15.7,8.67,0,15.7-7.03,15.7-15.7h0c0-8.67-7.03-15.69-15.7-15.7ZM72.5,69.74c-5.8,0-10.51-4.68-10.52-10.48,0-5.8,4.68-10.51,10.48-10.52,5.8,0,10.51,4.68,10.52,10.48,0,0,0,.01,0,.02,0,5.79-4.69,10.49-10.48,10.5Z" fill="#231f20"/>
  </g>
</svg>