<?xml version="1.0" encoding="UTF-8"?>
<svg id="uuid-5a77150c-d932-46b8-895a-32bea4388610" data-name="Layer_1" xmlns="http://www.w3.org/2000/svg" viewBox="0 0 327.01 114.49">
  <g id="uuid-3c24391b-97bb-465e-b9b5-32bae43d48b3" data-name="logogry">
    <path d="M63.01,70.22v-1.92c1.17-.19,2.25-.29,3.28-.55,1.74-.45,2.36-1.52,1.62-3.11-1.26-2.71-2.71-5.35-4.15-8.14h-20.04c-1.21,2.37-2.6,4.93-3.81,7.58-.91,1.97-.19,3.23,1.97,3.67.9.18,1.84.12,2.93.18.07.55.15,1.12.26,1.88h-16.35c-.06-.63-.12-1.12-.17-1.64.29-.14.48-.29.69-.32,2.21-.25,3.98-1.25,5.12-3.16,1.72-2.91,3.35-5.87,5.17-9.06h-13.45c-.98,1.43-1.18,2.88-.36,4.64,1.48,3.15.59,6.17-1.01,9.04-.48.87-1.07,1.68-1.63,2.57H4.22c-2.61-3.62-4.68-7.5-2.45-12.36.26-.56.28-1.36.1-1.96-.89-3.06-.88-6.05.3-9.05.25-.63.24-1.53-.02-2.15-2.08-4.84-.34-8.8,2.57-12.58,5.84,0,11.56.03,17.27-.03,1.09-.01,1.7.41,2.25,1.25,2.5,3.86,3.56,7.8,1.2,12.19-1.18,2.21.11,4.05,2.62,4.05,4.1,0,8.19-.02,12.29.02,1.14.01,1.79-.34,2.36-1.39,3.64-6.71,7.37-13.37,11.08-20.05.52-.94,1.09-1.85,1.55-2.64,1.65-.57,2.4.1,3.07,1.39,3.53,6.86,7.16,13.67,10.73,20.51.65,1.24,1.16,2.58,2.89,2.29.27,5.94,3.7,10.33,6.56,14.92,1.71,2.74,5.75,2.42,7.77,1.4.73-.37,1.22-1.53,1.49-2.43.29-.93.24-1.99.24-2.99.01-9.58,0-19.17,0-28.75,0-.61-.09-1.21-.15-2-3.05-.43-6.02-.48-8.9.53-1.49.53-2.29,1.79-2.59,3.32-.25,1.28-.44,2.58-.67,4-.47.06-.97.13-1.5.2v-11.47h35.09v11.26c-.39.06-.95.14-1.51.23-.14-.34-.27-.54-.3-.76-.2-1.29-.26-2.62-.6-3.87-.45-1.67-1.5-2.93-3.32-3.14-2.51-.3-5.03-.47-7.81-.71-.1,1.22-.23,2.1-.23,2.98,0,9.66,0,19.32,0,28.98,0,4.11.43,4.61,4.42,5.3.53.09,1.07.16,1.78.26.05.55.09,1.11.13,1.63h-38.92ZM46.42,51.13h14.81c-2.41-4.76-4.7-9.28-7.12-14.06-2.66,4.86-5.09,9.3-7.69,14.06ZM133.25,68.67v1.67h-20v-1.73c.75-.07,1.43-.1,2.1-.2,3.01-.43,4.13-1.7,4.18-4.76.03-1.62.01-3.24.01-4.87,0-7.73,0-15.45,0-23.18,0-4.41-.98-5.41-5.38-5.55-.23,0-.46-.05-.89-.11-.04-.62-.07-1.25-.12-2.01,6.2,0,12.22-.02,18.24.01,2.47.01,4.94.05,7.4.23,1.29.09,2.59.41,3.82.82,4.23,1.39,6.7,4.32,7.1,8.77.46,5.03-1.56,8.66-5.88,10.81-1.22.61-2.51,1.05-4,1.65,2.51,3.13,4.91,6.24,7.43,9.23,1.74,2.06,3.57,4.05,5.5,5.94,1.09,1.06,2.39,1.94,3.69,2.75.83.52,1.35.99.77,2.29-3,0-6.14.1-9.27-.07-.74-.04-1.58-.88-2.14-1.55-4.26-5.08-8.49-10.19-12.66-15.35-1.85-2.28-2.94-2.64-6.15-1.48,0,4.3-.1,8.68.05,13.06.06,1.63,1.11,2.85,2.92,3.1,1.06.14,2.11.33,3.28.52ZM127.09,48.74c2.95-.37,5.64-.51,8.24-1.08,5.9-1.29,7.58-5.65,6.1-11.59-.48-1.92-1.82-3.28-3.63-3.92-2.85-1.01-5.82-1.34-8.87-1-1.45.16-2,.79-1.99,2.23.03,4.25-.02,8.5-.02,12.74,0,.68.09,1.36.18,2.63ZM307.95,28.05v1.87c1.1.12,2.12.11,3.07.37,1.39.37,1.58.88,1.03,2.19-.18.43-.35.88-.63,1.23-2.63,3.22-5.28,6.42-8.1,9.83-3-4.17-5.85-8.14-8.69-12.08q1.28-1.1,5.01-1.62v-1.77h-19.83c.07.74.12,1.31.18,1.95,3.18-.21,5.21,1.46,6.89,3.73,2.3,3.09,4.61,6.19,6.92,9.28,1.55,2.08,3.12,4.15,4.71,6.28-4.01,4.78-7.92,9.35-11.73,14-2.1,2.55-4.32,4.82-7.84,5.32.03.67.06,1.18.09,1.73h14.83c-.05-.67-.08-1.22-.1-1.6-1.59-.79-3.53-.08-4.62-2.11,3.23-5.13,7.49-9.53,11.43-14.44,3.06,4.34,5.94,8.44,8.83,12.54.13.19.24.4.33.61.77,1.67.38,2.43-1.43,2.73-.98.16-1.96.29-3.11.46.06.7.1,1.25.14,1.8h19.9v-1.78c-4.12-.52-6.48-3.3-8.65-6.4-2.43-3.48-4.95-6.89-7.44-10.33-1.3-1.79-2.6-3.57-3.97-5.46,3.92-4.52,7.66-8.94,11.53-13.23,1.8-2,4.08-3.28,6.93-3.13.13,0,.26-.14.48-.26.03-.47.05-.99.09-1.71h-16.26ZM238.98,30.07c3.37.27,4.48,1.38,4.73,4.74.03.31.01.62.01.92,0,9.04.02,18.08-.01,27.13,0,.92-.18,1.83-.35,2.74-.27,1.46-1.16,2.28-2.65,2.48-1.06.15-2.1.36-3.22.55v1.71h37.37c1.14-3.55,2.24-6.98,3.41-10.62-.66-.3-1.23-.56-1.73-.79-.21.22-.28.27-.31.33-.28.55-.58,1.09-.82,1.65-1.79,4.2-5.16,5.99-9.51,6.09-4.09.1-8.19.04-12.28,0-1.96-.02-2.41-.49-2.41-2.51-.03-4.48-.02-8.97,0-13.45,0-.36.14-.72.24-1.19,3.95,0,7.8-.06,11.65.02,3.71.07,4.53.82,5.37,4.38.12.51.31,1,.5,1.6.55-.06,1.05-.11,1.59-.18v-15h-1.7c-.19.78-.3,1.54-.55,2.26-.25.72-.48,1.52-.96,2.06-1.17,1.3-2.84,1.48-4.45,1.51-3.48.07-6.96.03-10.44.02-.35,0-.71-.16-1.26-.29,0-4.54,0-9.01,0-13.47,0-1.46,1.01-1.52,2.07-1.52,4.25,0,8.51-.15,12.75.05,3.93.18,5.08,1.28,6.06,4.56.19.64.39,1.29.63,2.06.71-.08,1.36-.15,1.95-.22-.24-3.34-.47-6.47-.7-9.69h-36.35c-.09.29-.2.49-.22.7-.02.3.03.61.07,1.14.63.08,1.08.16,1.53.2ZM234.28,70.39c1.16-3.82,2.31-7.59,3.52-11.55h-2.15c-.13.33-.22.62-.35.88-2.22,4.5-5.61,7.28-10.83,7.36-2.39.04-4.79.07-7.18.07-4.49-.02-4.7-.23-4.71-4.69-.01-8.88-.01-17.76,0-26.64,0-.69.05-1.39.13-2.08.29-2.29,1.44-3.43,3.74-3.66.68-.07,1.37-.01,2.25-.01-.04-.78-.07-1.42-.1-1.99h-19.69c.05.73.09,1.3.15,1.98.84,0,1.54-.05,2.21.01,2.43.21,3.45,1.27,3.59,3.67.03.54.02,1.08.02,1.62,0,8.96,0,17.92,0,26.88,0,.92,0,1.86-.11,2.77-.24,1.9-.98,2.67-2.86,3.11-.95.22-1.92.39-2.84.57-.06.36-.12.59-.12.81,0,.23.08.45.16.88h35.17ZM4.66,73.59v4.1h18.97v-4.1H4.66ZM29.23,14.62C29.23,6.55,22.69,0,14.62,0S0,6.55,0,14.62s6.54,14.62,14.62,14.62,14.62-6.55,14.62-14.62ZM6.8,91v-.78c1.74.09,3.64.15,5.69.15l5.89-.08c2,0,3.59.29,4.79.86,1.2.58,2.12,1.5,2.78,2.75.66,1.26.99,2.73.99,4.4,0,3.09-1.05,5.63-3.14,7.64-2.1,2.01-4.91,3.02-8.44,3.02-.2,0-1.01-.03-2.42-.08-1.41-.05-2.24-.07-2.48-.07-.86,0-2.08.06-3.66.16v-.78c1.43-.27,2.23-.44,2.4-.49.16-.05.28-.12.35-.18.07-.07.12-.17.15-.3.04-.18.07-.93.09-2.23.05-2.87.07-4.95.07-6.26l-.07-5.78v-.45c0-.45-.12-.73-.37-.85-.15-.09-1.03-.3-2.61-.64ZM12.43,107.39c1.43.18,2.63.26,3.6.26,1.5,0,2.75-.24,3.72-.73,1.4-.71,2.46-1.75,3.19-3.11.72-1.37,1.09-3.05,1.09-5.03,0-1.04-.12-1.99-.37-2.85-.24-.86-.57-1.54-.97-2.05-.59-.76-1.36-1.34-2.31-1.74-.95-.4-2.32-.6-4.12-.6-1.08,0-2.36.06-3.83.2-.05,2.31-.07,4.94-.07,7.87,0,3.1.03,5.7.07,7.78ZM28.89,98.3v-.74c1.49-.38,2.88-.94,4.18-1.69l.34.28c-.18,1.87-.26,4.51-.26,7.94,0,1.61.03,2.59.12,2.96.05.24.14.42.28.53.13.11.59.28,1.38.51.1.03.23.07.43.14v.73c-1.15-.1-2.1-.14-2.84-.14-.45,0-1.65.05-3.62.14v-.73c1.19-.3,1.86-.56,2.01-.81.15-.24.23-1.5.23-3.79l-.02-2.81v-.55c0-.99-.06-1.58-.19-1.79-.13-.2-.34-.3-.63-.3-.19,0-.65.04-1.39.12ZM32.19,89.52c.39,0,.72.14.98.41.27.27.41.6.41.98s-.14.7-.41.98c-.26.27-.59.41-.98.41s-.71-.13-.97-.41c-.27-.27-.4-.6-.4-.98s.13-.71.4-.98c.26-.27.59-.41.97-.41ZM38.45,99.99l-.86-.09c.17-.92.3-1.83.37-2.74,1.71-.78,3.26-1.16,4.64-1.16.6,0,1.14.08,1.62.26.49.17.87.41,1.15.71.28.3.49.67.64,1.09.14.42.22,1.1.22,2.02l-.12,5.46c0,.74.08,1.22.25,1.46.16.22.38.34.64.34.31,0,.81-.24,1.49-.71l.41.54c-1.24,1.11-1.92,1.7-2.04,1.77-.25.14-.55.21-.92.21-.58,0-1.02-.15-1.33-.43-.31-.28-.52-.77-.63-1.45-1.06.82-1.83,1.34-2.35,1.55-.51.21-1.06.32-1.66.32-.97,0-1.77-.3-2.37-.89-.6-.59-.9-1.35-.9-2.28,0-.56.11-1.07.32-1.52.21-.45.52-.85.92-1.2.3-.25.82-.56,1.56-.92,1.71-.84,3.21-1.5,4.48-2.02-.04-1.24-.24-2.07-.61-2.47-.37-.41-.94-.61-1.71-.61-.72,0-1.34.22-1.85.67-.52.45-.97,1.15-1.37,2.1ZM43.99,101.46c-2.29,1.03-3.68,1.78-4.17,2.25-.48.48-.71,1.04-.71,1.7s.18,1.19.54,1.59c.36.39.79.59,1.27.59s1.05-.17,1.63-.49c.59-.33.97-.7,1.17-1.12.19-.41.28-1.16.28-2.26v-2.26ZM62.1,96.38l.12.18c-.2.4-.4.82-.59,1.27-.65-.08-1.33-.12-2.04-.13.57.9.85,1.78.85,2.64,0,1.27-.46,2.32-1.39,3.17-.92.85-2.22,1.28-3.88,1.28-.43,0-.91-.05-1.41-.15-.66.62-.99,1.07-.99,1.37,0,.24.11.42.33.53.38.2,1.36.3,2.91.3l2.34-.04c1.36,0,2.31.22,2.83.68.52.46.79,1.14.79,2.05,0,1.27-.54,2.32-1.62,3.14-1.56,1.21-3.59,1.82-6.04,1.82-1.72,0-2.98-.3-3.77-.91-.8-.61-1.2-1.27-1.2-2.01,0-.36.07-.67.19-.91.07-.11.28-.28.66-.53l2.08-1.48c-.62-.12-1.08-.35-1.38-.68-.31-.33-.46-.71-.46-1.12,0-.28.09-.49.26-.63.46-.35,1.18-.97,2.15-1.86-.75-.39-1.31-.88-1.69-1.49-.37-.61-.57-1.33-.57-2.17,0-1.35.48-2.46,1.43-3.35.94-.89,2.24-1.34,3.87-1.34.4,0,.79.04,1.21.11.41.07.85.19,1.31.35.48,0,.85-.01,1.11-.01,1.21,0,2.07-.02,2.58-.08ZM53.48,108.7c-.7.59-1.19,1.09-1.45,1.48-.26.39-.39.75-.39,1.08,0,.46.24.88.73,1.22.67.49,1.6.73,2.81.73,1.38,0,2.52-.26,3.41-.78.9-.51,1.34-1.21,1.34-2.11,0-.52-.18-.93-.53-1.22-.36-.28-1.04-.43-2.04-.43l-.55.02h-3.33ZM52.93,100.11c0,1.26.25,2.2.76,2.83.52.62,1.13.94,1.88.94.69,0,1.27-.27,1.73-.8.46-.54.68-1.33.68-2.37,0-1.3-.24-2.25-.73-2.84-.49-.6-1.12-.9-1.87-.9-.69,0-1.27.26-1.75.79-.46.52-.7,1.31-.7,2.35ZM62.64,98.45v-.77c1.58-.37,3.02-.93,4.3-1.68l.36.22c-.13.75-.2,1.52-.23,2.31l1.68-1.66c.29-.24.61-.44,1-.58.52-.19,1.06-.29,1.62-.29,1.26,0,2.21.42,2.85,1.25.43.56.65,1.51.65,2.87l-.04,3.19c0,2.14.03,3.4.08,3.8.04.26.13.44.25.56.11.1.53.24,1.25.4.13.04.33.09.59.15v.73c-1.04-.1-1.96-.14-2.78-.14-.7,0-1.92.05-3.63.14v-.73c1.03-.3,1.61-.51,1.74-.61.12-.11.2-.28.23-.52.1-.88.14-2.2.14-4.01,0-1.92-.04-3.07-.12-3.47-.12-.58-.38-1.03-.78-1.35-.4-.32-.88-.48-1.43-.48s-1.15.16-1.71.51c-.56.34-.98.8-1.24,1.37-.27.57-.4,1.41-.4,2.53,0,3.17.07,4.88.19,5.14.13.27.65.51,1.55.74.11.03.27.07.49.14v.73c-1.17-.1-2.16-.14-2.96-.14s-1.93.05-3.47.14v-.73c1.05-.25,1.64-.43,1.79-.55.08-.07.15-.25.19-.56.1-.84.14-1.97.14-3.42,0-2.98-.04-4.6-.1-4.85-.1-.37-.35-.56-.77-.56-.2,0-.5.03-.91.09-.12.01-.29.04-.52.07ZM78.22,102.79c0-2.13.6-3.82,1.81-5.06,1.21-1.24,2.79-1.86,4.75-1.86,1.86,0,3.34.56,4.43,1.67,1.09,1.12,1.62,2.69,1.62,4.69,0,2.17-.61,3.88-1.83,5.14-1.22,1.27-2.8,1.9-4.74,1.9s-3.36-.56-4.43-1.7c-1.09-1.13-1.62-2.72-1.62-4.79ZM80.75,101.65c0,1.44.1,2.51.28,3.19.3,1.11.76,1.95,1.39,2.51.64.56,1.37.84,2.2.84,1.09,0,1.98-.42,2.68-1.24.69-.82,1.04-2.14,1.04-3.97,0-2.04-.39-3.56-1.18-4.54-.78-.98-1.71-1.47-2.78-1.47s-1.92.39-2.6,1.15c-.67.77-1.01,1.95-1.01,3.53ZM100.57,99.6l-.93-.08c-.06-.77-.34-1.38-.83-1.83-.48-.45-1.09-.67-1.82-.67-.64,0-1.15.17-1.51.51-.37.34-.56.73-.56,1.17,0,.39.14.75.43,1.08.4.46,1.27,1.02,2.61,1.68,1.34.66,2.24,1.28,2.71,1.86.46.6.69,1.27.69,2.01,0,1.07-.43,2-1.3,2.78-.87.78-2.04,1.18-3.54,1.18-1.09,0-2.28-.25-3.59-.73.13-1.25.21-2.38.21-3.41h.91c.26,1.03.64,1.78,1.17,2.23.52.44,1.17.67,1.94.67.68,0,1.22-.17,1.59-.52.38-.34.57-.79.57-1.33s-.18-1-.55-1.44c-.38-.44-1.22-.98-2.52-1.64-1.3-.64-2.17-1.24-2.61-1.77-.43-.53-.66-1.12-.66-1.79,0-.95.43-1.8,1.29-2.56.85-.76,2.01-1.13,3.43-1.13,1,0,2.07.23,3.22.7-.12.71-.24,1.72-.35,3.02ZM106.14,93.1h.76l-.3,3.37,3.66-.04.1.21c-.22.36-.41.75-.6,1.15-1.05-.04-2.09-.07-3.16-.09l-.12,6.79v.09c0,1.04.12,1.8.36,2.26.22.46.63.7,1.18.7.47,0,1.09-.2,1.85-.6l.39.76c-.97.59-1.69,1-2.2,1.18-.49.19-.93.28-1.3.28-.58,0-1.08-.15-1.48-.46-.4-.3-.67-.72-.8-1.26-.08-.3-.12-1.21-.12-2.74,0-1.64.05-3.97.15-6.99-.61.02-1.26.05-1.92.09v-.71c.73-.33,1.38-.79,1.92-1.38.55-.57,1.09-1.44,1.63-2.6ZM111.17,98.3v-.74c1.48-.38,2.87-.94,4.18-1.69l.34.28c-.17,1.87-.26,4.51-.26,7.94,0,1.61.04,2.59.11,2.96.06.24.15.42.28.53.13.11.59.28,1.37.51.11.03.25.07.43.14v.73c-1.15-.1-2.1-.14-2.83-.14-.45,0-1.66.05-3.62.14v-.73c1.18-.3,1.86-.56,2.01-.81.15-.24.23-1.5.23-3.79l-.02-2.81v-.55c0-.99-.06-1.58-.19-1.79-.13-.2-.34-.3-.63-.3-.19,0-.65.04-1.39.12ZM114.46,89.52c.38,0,.71.14.98.41.26.27.4.6.4.98s-.14.7-.4.98c-.27.27-.6.41-.98.41s-.7-.13-.98-.41c-.27-.27-.4-.6-.4-.98s.13-.71.4-.98c.28-.27.59-.41.98-.41ZM128.84,100.44l-.89-.06c-.04-1.12-.31-1.94-.83-2.48-.53-.53-1.24-.8-2.16-.8-.65,0-1.27.18-1.87.54-.6.35-1.07.94-1.41,1.76-.34.8-.51,1.71-.51,2.74,0,1.64.4,2.92,1.2,3.84.79.92,1.72,1.38,2.76,1.38,1.1,0,2.43-.44,3.98-1.31l.49.79c-1.39,1.02-2.53,1.74-3.45,2.15-.44.19-.97.3-1.61.3-1.54,0-2.78-.46-3.74-1.35-1.26-1.19-1.89-2.8-1.89-4.84s.67-3.83,1.98-5.19c1.32-1.35,2.95-2.03,4.88-2.03,1.33,0,2.61.34,3.83,1.02-.06.3-.15.69-.27,1.16-.14.62-.31,1.42-.49,2.39ZM137.55,91v-.78c2.34.09,4.21.15,5.62.15.81,0,1.56-.01,2.27-.03.94-.04,1.58-.05,1.95-.05,1.71,0,3.01.4,3.88,1.22.87.82,1.3,1.93,1.3,3.31,0,.94-.2,1.76-.59,2.48-.4.72-.96,1.33-1.7,1.82-.54.35-1.31.67-2.3.94l4.4,5.73c.54.71.88,1.13,1.03,1.25.22.18.51.34.86.48.49.19,1.33.42,2.5.67v.78c-1.4-.1-2.41-.14-3.05-.14-.73,0-1.48.05-2.25.14-.39-.66-.93-1.49-1.61-2.49-.67-1-1.09-1.59-1.24-1.77-.08-.1-.16-.22-.25-.34l-2.91-3.98c-.78-.02-1.56-.08-2.37-.18l.11,6.66c.02.26.1.46.24.59.21.17.88.36,1.98.56.16.03.4.08.72.16v.78c-1.59-.1-2.99-.14-4.21-.14-1.3,0-2.76.05-4.38.14v-.78l.57-.12c1.26-.25,1.98-.43,2.15-.58.18-.16.28-.43.31-.83.01-.26.03-2.51.06-6.79l-.05-6.21c0-.95-.04-1.5-.07-1.64-.05-.14-.13-.25-.26-.31-.43-.24-1.12-.42-2.04-.57-.14-.02-.37-.07-.66-.13ZM143.09,99.08c.92.1,1.62.14,2.13.14,1.6,0,2.79-.36,3.56-1.07.77-.71,1.15-1.7,1.15-2.97,0-1.12-.34-1.99-1.02-2.64-.68-.64-1.68-.97-2.98-.97-.47,0-1.39.06-2.76.17l-.08,7.34ZM159.19,99.99l-.86-.09c.17-.92.31-1.83.37-2.74,1.71-.78,3.26-1.16,4.63-1.16.61,0,1.15.08,1.63.26.48.17.86.41,1.15.71.28.3.49.67.64,1.09.14.42.22,1.1.22,2.02l-.12,5.46c0,.74.08,1.22.25,1.46.16.22.39.34.65.34.32,0,.82-.24,1.5-.71l.41.54c-1.25,1.11-1.92,1.7-2.04,1.77-.25.14-.55.21-.91.21-.58,0-1.03-.15-1.33-.43-.31-.28-.52-.77-.63-1.45-1.06.82-1.84,1.34-2.35,1.55-.51.21-1.06.32-1.66.32-.98,0-1.77-.3-2.37-.89-.6-.59-.9-1.35-.9-2.28,0-.56.11-1.07.32-1.52.2-.45.51-.85.91-1.2.31-.25.82-.56,1.56-.92,1.71-.84,3.21-1.5,4.49-2.02-.05-1.24-.25-2.07-.62-2.47-.37-.41-.94-.61-1.7-.61s-1.33.22-1.85.67c-.52.45-.97,1.15-1.38,2.1ZM164.74,101.46c-2.3,1.03-3.69,1.78-4.17,2.25-.48.48-.72,1.04-.72,1.7s.18,1.19.55,1.59c.35.39.78.59,1.26.59.51,0,1.06-.17,1.64-.49.58-.33.97-.7,1.16-1.12.19-.41.28-1.16.28-2.26v-2.26ZM177.59,92.02v-.74c.95-.28,1.64-.5,2.07-.67.43-.17,1.17-.53,2.19-1.07l.32.27c-.19,2.04-.28,5.85-.28,11.41,0,3.08.04,4.8.12,5.15.07.35.34.53.79.53.26,0,.73-.06,1.4-.17v.71c-1.84.55-3.27,1.12-4.28,1.71l-.33-.25c.11-.67.17-1.32.19-1.98-1.1,1-1.9,1.61-2.42,1.86-.52.25-1.13.37-1.85.37-1.35,0-2.47-.51-3.35-1.51-.88-1.01-1.33-2.44-1.33-4.29,0-1.27.21-2.36.64-3.28.33-.7.8-1.37,1.42-2,.61-.63,1.3-1.13,2.07-1.51.76-.37,1.52-.55,2.28-.55.36,0,.75.04,1.18.13.43.09.91.22,1.42.39.02-.44.03-.69.03-.76,0-2.07-.04-3.22-.12-3.44-.1-.33-.4-.49-.87-.49-.16,0-.45.04-.85.1-.11.02-.26.04-.46.07ZM179.86,102.24c0-1.73-.04-2.74-.12-3.01-.15-.52-.49-.97-1.03-1.34-.54-.36-1.21-.55-2.01-.55-1,0-1.86.42-2.56,1.25-.7.83-1.06,2.05-1.06,3.66s.36,2.92,1.08,3.78c.7.87,1.56,1.3,2.55,1.3.66,0,1.27-.19,1.82-.57.54-.38.89-.83,1.08-1.37.18-.54.26-1.59.26-3.16ZM185.16,98.3v-.74c1.47-.38,2.87-.94,4.18-1.69l.34.28c-.16,1.87-.27,4.51-.27,7.94,0,1.61.04,2.59.13,2.96.04.24.14.42.28.53.13.11.58.28,1.37.51.1.03.25.07.44.14v.73c-1.15-.1-2.1-.14-2.84-.14-.46,0-1.66.05-3.62.14v-.73c1.19-.3,1.86-.56,2.01-.81.15-.24.22-1.5.22-3.79v-2.81s0-.55,0-.55c0-.99-.07-1.58-.19-1.79-.13-.2-.34-.3-.64-.3-.19,0-.65.04-1.38.12ZM188.45,89.52c.39,0,.72.14.99.41.26.27.4.6.4.98s-.13.7-.4.98c-.27.27-.6.41-.99.41s-.7-.13-.97-.41c-.28-.27-.41-.6-.41-.98s.13-.71.41-.98c.26-.27.58-.41.97-.41ZM193.03,102.79c0-2.13.61-3.82,1.81-5.06,1.21-1.24,2.79-1.86,4.76-1.86,1.86,0,3.33.56,4.42,1.67,1.09,1.12,1.64,2.69,1.64,4.69,0,2.17-.61,3.88-1.83,5.14-1.23,1.27-2.81,1.9-4.75,1.9s-3.35-.56-4.43-1.7c-1.08-1.13-1.62-2.72-1.62-4.79ZM195.57,101.65c0,1.44.09,2.51.28,3.19.29,1.11.76,1.95,1.38,2.51.63.56,1.36.84,2.2.84,1.09,0,1.98-.42,2.67-1.24.7-.82,1.04-2.14,1.04-3.97,0-2.04-.39-3.56-1.18-4.54-.79-.98-1.72-1.47-2.79-1.47s-1.93.39-2.61,1.15c-.67.77-1.01,1.95-1.01,3.53ZM207.07,92.02v-.74c1.57-.5,2.99-1.08,4.25-1.73l.37.24c-.22,1.66-.31,4.73-.31,9.23s0,7.06.05,7.54c.03.48.13.8.29.96.16.16.79.4,1.91.71v.73c-1.42-.1-2.52-.14-3.3-.14-.83,0-1.92.05-3.23.14v-.73c1.18-.38,1.83-.61,1.94-.72.1-.1.16-.36.19-.77.03-.54.05-2.96.05-7.27l-.03-6.28v-.18c0-.49-.06-.8-.2-.95-.13-.15-.34-.23-.61-.23-.24,0-.7.06-1.36.19ZM215.02,102.79c0-2.13.61-3.82,1.82-5.06,1.21-1.24,2.79-1.86,4.75-1.86s3.34.56,4.42,1.67c1.09,1.12,1.64,2.69,1.64,4.69,0,2.17-.61,3.88-1.83,5.14-1.22,1.27-2.81,1.9-4.74,1.9s-3.36-.56-4.44-1.7c-1.08-1.13-1.62-2.72-1.62-4.79ZM217.56,101.65c0,1.44.09,2.51.28,3.19.28,1.11.75,1.95,1.38,2.51.63.56,1.37.84,2.21.84,1.09,0,1.98-.42,2.67-1.24.7-.82,1.05-2.14,1.05-3.97,0-2.04-.4-3.56-1.18-4.54-.79-.98-1.71-1.47-2.79-1.47s-1.92.39-2.61,1.15c-.67.77-1,1.95-1,3.53ZM241.75,96.38l.12.18c-.19.4-.4.82-.59,1.27-.65-.08-1.33-.12-2.04-.13.57.9.85,1.78.85,2.64,0,1.27-.46,2.32-1.38,3.17-.93.85-2.22,1.28-3.88,1.28-.45,0-.91-.05-1.42-.15-.66.62-.99,1.07-.99,1.37,0,.24.11.42.33.53.38.2,1.35.3,2.92.3l2.33-.04c1.37,0,2.32.22,2.84.68.52.46.78,1.14.78,2.05,0,1.27-.54,2.32-1.61,3.14-1.57,1.21-3.59,1.82-6.04,1.82-1.72,0-2.98-.3-3.78-.91-.79-.61-1.2-1.27-1.2-2.01,0-.36.07-.67.2-.91.06-.11.28-.28.64-.53l2.1-1.48c-.62-.12-1.08-.35-1.38-.68-.31-.33-.46-.71-.46-1.12,0-.28.08-.49.26-.63.46-.35,1.18-.97,2.16-1.86-.75-.39-1.32-.88-1.69-1.49-.38-.61-.57-1.33-.57-2.17,0-1.35.47-2.46,1.42-3.35.94-.89,2.23-1.34,3.88-1.34.38,0,.79.04,1.21.11.42.07.86.19,1.31.35.48,0,.85-.01,1.12-.01,1.21,0,2.07-.02,2.57-.08ZM233.14,108.7c-.7.59-1.18,1.09-1.44,1.48-.26.39-.39.75-.39,1.08,0,.46.24.88.73,1.22.66.49,1.59.73,2.81.73,1.38,0,2.52-.26,3.41-.78.9-.51,1.34-1.21,1.34-2.11,0-.52-.18-.93-.53-1.22-.36-.28-1.03-.43-2.02-.43l-.56.02h-3.34ZM232.59,100.11c0,1.26.25,2.2.77,2.83.51.62,1.14.94,1.87.94s1.27-.27,1.73-.8c.46-.54.69-1.33.69-2.37,0-1.3-.25-2.25-.73-2.84-.49-.6-1.11-.9-1.87-.9-.69,0-1.27.26-1.75.79-.46.52-.7,1.31-.7,2.35ZM242.67,98.3v-.74c1.47-.38,2.87-.94,4.17-1.69l.34.28c-.18,1.87-.27,4.51-.27,7.94,0,1.61.04,2.59.12,2.96.05.24.15.42.28.53.14.11.59.28,1.38.51.1.03.25.07.43.14v.73c-1.15-.1-2.1-.14-2.84-.14-.45,0-1.65.05-3.62.14v-.73c1.18-.3,1.86-.56,2-.81.16-.24.22-1.5.22-3.79v-2.81s0-.55,0-.55c0-.99-.07-1.58-.19-1.79-.13-.2-.34-.3-.64-.3-.18,0-.65.04-1.38.12ZM245.96,89.52c.39,0,.71.14.99.41.26.27.4.6.4.98s-.13.7-.4.98c-.28.27-.6.41-.99.41s-.7-.13-.97-.41c-.28-.27-.41-.6-.41-.98s.13-.71.41-.98c.27-.27.58-.41.97-.41ZM258.25,99.6l-.93-.08c-.06-.77-.34-1.38-.82-1.83-.5-.45-1.1-.67-1.83-.67-.64,0-1.15.17-1.52.51-.37.34-.56.73-.56,1.17,0,.39.15.75.44,1.08.4.46,1.27,1.02,2.61,1.68,1.34.66,2.25,1.28,2.71,1.86.46.6.68,1.27.68,2.01,0,1.07-.43,2-1.29,2.78-.86.78-2.04,1.18-3.54,1.18-1.09,0-2.28-.25-3.59-.73.14-1.25.21-2.38.21-3.41h.91c.25,1.03.64,1.78,1.17,2.23.52.44,1.18.67,1.93.67.7,0,1.22-.17,1.59-.52.38-.34.58-.79.58-1.33s-.19-1-.56-1.44c-.37-.44-1.21-.98-2.52-1.64-1.3-.64-2.16-1.24-2.6-1.77-.43-.53-.65-1.12-.65-1.79,0-.95.42-1.8,1.28-2.56.85-.76,2-1.13,3.43-1.13,1,0,2.07.23,3.22.7-.13.71-.24,1.72-.35,3.02ZM263.82,93.1h.76l-.31,3.37,3.66-.04.1.21c-.22.36-.42.75-.61,1.15-1.04-.04-2.1-.07-3.16-.09l-.12,6.79v.09c0,1.04.12,1.8.34,2.26.25.46.64.7,1.21.7.46,0,1.08-.2,1.85-.6l.38.76c-.97.59-1.69,1-2.19,1.18-.5.19-.94.28-1.31.28-.58,0-1.07-.15-1.48-.46-.4-.3-.67-.72-.8-1.26-.07-.3-.12-1.21-.12-2.74,0-1.64.04-3.97.14-6.99-.62.02-1.25.05-1.91.09v-.71c.73-.33,1.38-.79,1.92-1.38.55-.57,1.09-1.44,1.64-2.6ZM276.81,99.6l-.92-.08c-.07-.77-.34-1.38-.82-1.83-.49-.45-1.1-.67-1.83-.67-.63,0-1.13.17-1.51.51-.37.34-.56.73-.56,1.17,0,.39.15.75.44,1.08.4.46,1.27,1.02,2.61,1.68,1.34.66,2.25,1.28,2.7,1.86.46.6.7,1.27.7,2.01,0,1.07-.43,2-1.3,2.78-.86.78-2.04,1.18-3.53,1.18-1.09,0-2.28-.25-3.6-.73.15-1.25.22-2.38.22-3.41h.91c.25,1.03.64,1.78,1.18,2.23.52.44,1.16.67,1.94.67.67,0,1.21-.17,1.59-.52.38-.34.58-.79.58-1.33s-.19-1-.56-1.44c-.37-.44-1.22-.98-2.52-1.64-1.3-.64-2.17-1.24-2.6-1.77-.44-.53-.67-1.12-.67-1.79,0-.95.43-1.8,1.29-2.56.86-.76,2.01-1.13,3.44-1.13,1,0,2.07.23,3.22.7-.12.71-.24,1.72-.36,3.02ZM294.66,90.22v.78c-.31.07-.54.11-.69.14-1.17.2-1.85.39-2.04.58-.18.18-.27.58-.27,1.21v.46l-.07,5.32.04,7.71c0,.62.09,1.01.27,1.18.18.16.79.31,1.85.43.21.03.5.08.9.16v.78c-1.42-.1-2.79-.14-4.1-.14s-2.84.05-4.46.14v-.78c.25-.07.45-.11.58-.13,1.26-.2,1.98-.39,2.16-.56.17-.17.26-.6.26-1.3l-.03-.66.04-4.85c0-4.99-.01-7.74-.04-8.27,0-.29-.1-.52-.28-.67-.16-.17-.83-.36-1.99-.57-.16-.03-.39-.09-.7-.17v-.78c1.92.09,3.41.15,4.48.15,1.19,0,2.56-.05,4.09-.15ZM295.65,98.45v-.77c1.58-.37,3.02-.93,4.3-1.68l.37.22c-.13.75-.21,1.52-.23,2.31l1.68-1.66c.28-.24.61-.44.99-.58.52-.19,1.06-.29,1.63-.29,1.25,0,2.21.42,2.85,1.25.43.56.64,1.51.64,2.87l-.04,3.19c0,2.14.02,3.4.08,3.8.04.26.12.44.25.56.13.1.54.24,1.25.4.13.04.33.09.59.15v.73c-1.03-.1-1.96-.14-2.78-.14-.7,0-1.91.05-3.62.14v-.73c1.03-.3,1.61-.51,1.74-.61.13-.11.21-.28.23-.52.1-.88.14-2.2.14-4.01,0-1.92-.04-3.07-.11-3.47-.13-.58-.39-1.03-.78-1.35-.4-.32-.88-.48-1.43-.48-.58,0-1.15.16-1.71.51-.56.34-.98.8-1.25,1.37-.27.57-.4,1.41-.4,2.53,0,3.17.07,4.88.19,5.14.13.27.65.51,1.55.74.11.03.28.07.5.14v.73c-1.18-.1-2.18-.14-2.98-.14s-1.93.05-3.46.14v-.73c1.04-.25,1.63-.43,1.77-.55.09-.07.16-.25.19-.56.1-.84.14-1.97.14-3.42,0-2.98-.03-4.6-.09-4.85-.1-.37-.36-.56-.78-.56-.19,0-.5.03-.91.09-.12.01-.29.04-.52.07ZM321.02,100.44l-.88-.06c-.03-1.12-.31-1.94-.84-2.48-.52-.53-1.24-.8-2.14-.8-.66,0-1.28.18-1.89.54-.59.35-1.06.94-1.4,1.76-.34.8-.5,1.71-.5,2.74,0,1.64.39,2.92,1.19,3.84s1.71,1.38,2.76,1.38c1.1,0,2.43-.44,3.98-1.31l.49.79c-1.38,1.02-2.53,1.74-3.45,2.15-.43.19-.98.3-1.6.3-1.55,0-2.79-.46-3.74-1.35-1.26-1.19-1.89-2.8-1.89-4.84s.67-3.83,1.98-5.19c1.33-1.35,2.96-2.03,4.89-2.03,1.32,0,2.6.34,3.82,1.02-.07.3-.16.69-.26,1.16-.16.62-.32,1.42-.51,2.39ZM325.54,106.33c.4,0,.75.14,1.04.43.28.28.43.64.43,1.04s-.15.75-.43,1.04c-.29.29-.64.44-1.04.44s-.76-.15-1.05-.44c-.28-.29-.43-.64-.43-1.04s.15-.76.43-1.04c.28-.29.63-.43,1.05-.43ZM177.01,26.41c-12.58,0-22.77,10.19-22.77,22.77s10.19,22.77,22.77,22.77,22.76-10.2,22.76-22.77-10.19-22.77-22.76-22.77ZM177.01,67.7c-10.23,0-18.52-8.29-18.52-18.52s8.29-18.52,18.52-18.52,18.51,8.29,18.51,18.52-8.29,18.52-18.51,18.52Z" fill="#fff" fill-rule="evenodd"/>
    <path d="M24.62,17.28h-7.35v7.34h-5.32v-7.34h-7.34v-5.32h7.34v-7.34h5.32v7.34h7.35v5.32ZM179.22,45.3c.74.44,1.31.98,1.73,1.69.41.7.6,1.47.64,2.28h10.8c.07-1.79-.4-4.68-1.81-7.27-1.43-2.64-3.47-4.68-6.11-6.18-1.76,3.18-3.5,6.32-5.25,9.48ZM169.49,35.85c-2.51,1.43-4.47,3.36-5.88,5.84-1.34,2.34-1.99,4.87-2.01,7.58h10.83c.08-1.72.84-3.03,2.34-3.96-1.76-3.16-3.5-6.29-5.27-9.46ZM169.54,62.74c2.1,1.26,5.42,2.22,8.86,1.9,2.16-.21,4.18-.81,6.09-1.89-1.77-3.17-3.51-6.31-5.27-9.45-1.49.75-2.95.74-4.43-.01-1.76,3.16-3.5,6.31-5.24,9.45ZM173.79,49.29c0,1.79,1.44,3.22,3.23,3.22s3.2-1.46,3.2-3.22c0-1.77-1.45-3.21-3.22-3.21-1.78,0-3.22,1.44-3.22,3.21Z" fill="#e7292c"/>
  </g>
</svg>