<?xml version="1.0" encoding="UTF-8"?>
<svg id="uuid-11cb9e14-5697-4ea8-be56-c845d60f3df3" data-name="Layer_1" xmlns="http://www.w3.org/2000/svg" viewBox="0 0 145 145">
  <g id="uuid-185ee1bf-e550-44c6-9592-cfebb1cdbccd" data-name="mail">
    <path id="uuid-6dcbfabb-baa6-4405-997a-e2b5453b6f2d" data-name="Path_44" d="M62.37,72.04c5.64,3.57,12.72,3.96,18.72,1.02,1.34-.64,1.9-2.25,1.26-3.59-.63-1.31-2.18-1.88-3.51-1.3-4.33,2.15-9.47,1.9-13.57-.67-6.26-3.99-8.1-12.3-4.1-18.56,3.99-6.26,12.3-8.1,18.56-4.1,3.87,2.47,6.21,6.74,6.21,11.34-.03,1.48-1.25,2.67-2.74,2.64-1.43-.03-2.59-1.17-2.64-2.6v-.04c0-4.46-3.61-8.08-8.07-8.09-4.46,0-8.08,3.61-8.09,8.07,0,4.46,3.61,8.08,8.07,8.09,1.99,0,3.92-.73,5.4-2.06,3.32,2.97,8.41,2.69,11.38-.62,1.33-1.48,2.06-3.4,2.06-5.39,0-10.39-8.42-18.82-18.82-18.83-10.39,0-18.82,8.42-18.83,18.82,0,6.43,3.28,12.41,8.69,15.87h0ZM72.5,58.87c-1.49,0-2.69-1.2-2.69-2.69,0-1.49,1.2-2.69,2.69-2.69,1.37,0,2.52,1.02,2.68,2.38-.04.25-.05.49-.02.74-.21,1.3-1.33,2.26-2.65,2.26h0Z" fill="#231f20"/>
    <path id="uuid-71c1d450-621a-48d1-ad20-64faaf4fa50c" data-name="Path_45" d="M112.82,61.92c0-.71-.28-1.39-.79-1.89l-9.97-9.97v-20.75c0-1.48-1.2-2.69-2.68-2.69h-53.77c-1.48,0-2.69,1.2-2.69,2.68h0v20.76l-9.97,9.97-.03.03c-.48.5-.76,1.17-.76,1.87v48.4c0,4.45,3.61,8.06,8.07,8.07h64.53c4.45,0,8.06-3.62,8.06-8.07v-48.4h0ZM106.34,61.92l-4.27,4.26v-8.53l4.27,4.27ZM96.69,31.98v39.58l-14.56,14.56h-19.28l-14.56-14.56V31.98h48.39ZM42.92,66.18l-4.26-4.26,4.26-4.27v8.53ZM37.55,109.2v-40.79l20.39,20.39-20.39,20.4ZM41.35,113l21.51-21.51h19.28l21.51,21.51h-62.3ZM107.45,109.2l-20.39-20.39,20.39-20.39v40.78Z" fill="#231f20"/>
  </g>
</svg>