<?xml version="1.0" encoding="UTF-8"?>
<svg id="Layer_1" xmlns="http://www.w3.org/2000/svg" viewBox="0 0 100 100">
  <defs>
    <style>
      .cls-1 {
        fill: #fff;
      }
    </style>
  </defs>
  <path class="cls-1" d="M94.75,23.93H6.6c-3.27,0-5.93-2.65-5.93-5.93s2.65-5.93,5.93-5.93h88.14c3.27,0,5.93,2.65,5.93,5.93s-2.65,5.93-5.93,5.93Z"/>
  <path class="cls-1" d="M94.75,53.58H6.6c-3.27,0-5.93-2.65-5.93-5.93s2.65-5.93,5.93-5.93h88.14c3.27,0,5.93,2.65,5.93,5.93s-2.65,5.93-5.93,5.93Z"/>
  <path class="cls-1" d="M94.75,83.22H6.6c-3.27,0-5.93-2.65-5.93-5.93s2.65-5.93,5.93-5.93h88.14c3.27,0,5.93,2.65,5.93,5.93s-2.65,5.93-5.93,5.93Z"/>
</svg>