<?xml version="1.0" encoding="UTF-8"?>
<svg id="uuid-a72b3504-1e6e-46a6-bb22-840dd1a8d9dd" data-name="Layer_1" xmlns="http://www.w3.org/2000/svg" viewBox="0 0 145 145">
  <path id="uuid-372e40f1-4d38-47eb-807e-89c24ca4ce42" data-name="tele" d="M111.01,91.8l-10.1-10.1c-2.79-2.79-7.31-2.79-10.1,0l-4.6,4.6c-2.11,2.11-5.54,2.11-7.65,0l-19.9-19.91c-2.11-2.1-2.12-5.52-.02-7.63,0,0,.01-.01.02-.02l4.6-4.6c2.79-2.79,2.79-7.31,0-10.1h0s-10.1-10.07-10.1-10.07c-2.79-2.78-7.3-2.78-10.09,0l-3.68,3.65c-10.04,10.06-10.04,26.35,0,36.42l31.53,31.54c10.05,10.06,26.34,10.06,36.4.02l.02-.02,3.68-3.67c2.8-2.78,2.84-7.29.06-10.09-.01-.01-.02-.02-.06-.01ZM97.54,85.06l10.1,10.1c.93.93.93,2.44,0,3.37l-1.68,1.68-13.46-13.47,1.68-1.68c.93-.93,2.44-.93,3.37,0h0ZM49.8,37.34l10.1,10.06c.93.93.93,2.43,0,3.36,0,0,0,0,0,0l-1.68,1.68-13.46-13.46,1.67-1.66c.93-.93,2.44-.93,3.37,0ZM74.29,102.2l-31.53-31.54c-7.69-7.65-8.26-19.91-1.31-28.24l13.42,13.42c-3.55,4.03-3.35,10.12.44,13.91l19.9,19.91h0c3.79,3.8,9.88,3.99,13.91.44l13.42,13.42c-8.33,6.97-20.6,6.4-28.25-1.31Z" fill="#231f20"/>
</svg>